# This file uses centimeters as units for non-parametric coordinates.

mtllib ancientRune1.mtl
g default
v -1.049779 -0.000000 0.474420
v -0.547708 -0.000000 0.848388
v 0.315113 -0.000000 0.849102
v 0.834842 -0.000000 0.399940
v -1.136614 0.644636 0.488717
v -0.547708 0.750986 0.932878
v 0.303682 0.750986 1.000565
v 1.037037 0.750986 0.489646
v -1.090296 1.418515 0.504559
v -0.510967 1.444634 0.931503
v 0.316943 1.531894 0.887915
v 1.003635 1.531894 0.474827
v -0.780277 1.935516 0.395733
v -0.424072 2.065870 0.741707
v 0.241172 2.109242 0.742421
v 0.790067 2.064488 0.380076
v -0.994305 2.267571 -0.196471
v -0.390454 2.537509 -0.000000
v 0.338427 2.539676 -0.000000
v 0.982888 2.229692 -0.171408
v -0.879347 1.863328 -0.555898
v -0.386654 2.118899 -0.535712
v 0.180923 2.034406 -0.598462
v 0.620795 1.894404 -0.495899
v -1.035347 1.407494 -0.502028
v -0.386654 1.407494 -0.535712
v 0.248786 1.373754 -0.598462
v 0.913220 1.407494 -0.495899
v -1.035347 0.696088 -0.502028
v -0.386654 0.696088 -0.535712
v 0.231234 0.696021 -0.536610
v 0.913220 0.696088 -0.495899
v -0.966519 0.000000 -0.502028
v -0.386654 0.000000 -0.535712
v 0.231381 0.000000 -0.598462
v 0.870448 0.000000 -0.495899
v -1.165646 -0.000000 -0.196471
v -0.390454 -0.000000 -0.000000
v 0.390454 -0.000000 -0.000000
v 1.181829 -0.000000 -0.171408
v 1.181829 0.750986 -0.171408
v 1.261094 1.548798 -0.171408
v -1.382526 0.836309 -0.265689
v -1.359883 1.719711 -0.265689
vt 0.375000 0.000000
vt 0.458333 0.000000
vt 0.541667 0.000000
vt 0.625000 0.000000
vt 0.375000 0.083333
vt 0.458333 0.083333
vt 0.541667 0.083333
vt 0.625000 0.083333
vt 0.375000 0.166667
vt 0.458333 0.166667
vt 0.541667 0.166667
vt 0.625000 0.166667
vt 0.375000 0.250000
vt 0.458333 0.250000
vt 0.541667 0.250000
vt 0.625000 0.250000
vt 0.375000 0.331867
vt 0.477216 0.353268
vt 0.555514 0.364598
vt 0.625000 0.331867
vt 0.375000 0.494965
vt 0.458333 0.494965
vt 0.541667 0.494965
vt 0.625000 0.494965
vt 0.375000 0.574521
vt 0.458333 0.574521
vt 0.541667 0.574521
vt 0.625000 0.574521
vt 0.375000 0.647784
vt 0.458333 0.647784
vt 0.541667 0.647784
vt 0.625000 0.647784
vt 0.375000 0.719787
vt 0.458333 0.719787
vt 0.541667 0.719787
vt 0.625000 0.719787
vt 0.375000 0.875000
vt 0.458333 0.875000
vt 0.541667 0.875000
vt 0.625000 0.875000
vt 0.375000 1.000000
vt 0.458333 1.000000
vt 0.541667 1.000000
vt 0.625000 1.000000
vt 0.875000 0.000000
vt 0.784838 0.000000
vt 0.875000 0.083333
vt 0.784838 0.083333
vt 0.875000 0.166667
vt 0.784838 0.166667
vt 0.875000 0.250000
vt 0.784838 0.250000
vt 0.125000 0.000000
vt 0.163734 0.000000
vt 0.125000 0.083333
vt 0.163734 0.083333
vt 0.125000 0.166667
vt 0.167052 0.166667
vt 0.125000 0.250000
vt 0.163734 0.250000
vn -0.591475 -0.093491 0.800885
vn -0.291131 -0.134343 0.947204
vn -0.296836 -0.036533 0.954229
vn -0.596416 -0.035639 0.801884
vn 0.298758 -0.189125 0.935401
vn 0.274357 -0.050975 0.960276
vn 0.595830 -0.200544 0.777669
vn 0.573447 -0.051166 0.817643
vn -0.297733 0.173309 0.938786
vn -0.618307 0.154037 0.770694
vn 0.286781 0.170678 0.942670
vn 0.536798 0.157147 0.828947
vn -0.258703 0.339198 0.904443
vn -0.623581 0.394515 0.674911
vn 0.248361 0.297706 0.921785
vn 0.513810 0.307309 0.800975
vn -0.555218 0.677064 0.483029
vn -0.224602 0.821477 0.524147
vn -0.214722 0.975684 0.043998
vn -0.454885 0.869328 -0.193256
vn 0.114807 0.852022 0.510762
vn 0.192225 0.981346 0.003057
vn 0.434599 0.777134 0.455178
vn 0.409908 0.893371 -0.184022
vn -0.081420 0.749372 -0.657125
vn -0.205002 0.706870 -0.676985
vn 0.107082 0.728845 -0.676253
vn 0.225447 0.653771 -0.722328
vn -0.001537 -0.045897 -0.998945
vn -0.065788 -0.020481 -0.997624
vn -0.055625 -0.021746 -0.998215
vn -0.033989 -0.016322 -0.999289
vn -0.008521 0.016039 -0.999835
vn 0.031781 -0.015144 -0.999380
vn 0.187790 0.058958 -0.980438
vn 0.133197 -0.011889 -0.991018
vn -0.052467 -0.000657 -0.998622
vn -0.053202 -0.001258 -0.998583
vn 0.030339 -0.001396 -0.999539
vn 0.107370 -0.003594 -0.994213
vn -0.053073 0.020893 -0.998372
vn -0.054752 -0.002707 -0.998496
vn 0.030978 0.042655 -0.998609
vn 0.107730 0.040836 -0.993341
vn 0.000000 -1.000000 -0.000001
vn 0.000000 -1.000000 -0.000000
vn 0.000000 -1.000000 -0.000000
vn 0.000000 -1.000000 -0.000000
vn -0.000000 -1.000000 -0.000000
vn -0.000000 -1.000000 -0.000000
vn -0.000000 -1.000000 -0.000001
vn -0.000000 -1.000000 -0.000000
vn 0.000000 -1.000000 0.000000
vn 0.000000 -1.000000 0.000000
vn 0.000000 -1.000000 0.000000
vn 0.000000 -1.000000 0.000000
vn 0.992837 -0.114244 -0.034979
vn 0.746374 -0.022061 -0.665161
vn 0.738891 -0.029705 -0.673170
vn 0.994920 -0.072677 -0.069654
vn 0.918886 -0.145600 0.366674
vn 0.940638 -0.082498 0.329232
vn 0.652713 0.111450 -0.749363
vn 0.976919 0.174712 -0.122903
vn 0.929871 0.149230 0.336259
vn 0.546406 0.266993 -0.793823
vn 0.900528 0.410069 -0.144546
vn 0.848328 0.373122 0.375660
vn -0.715600 -0.164089 -0.678963
vn -0.974696 -0.200566 -0.098695
vn -0.995539 -0.053673 -0.077593
vn -0.661553 -0.093370 -0.744063
vn -0.957662 -0.188323 0.217755
vn -0.958282 -0.081397 0.273991
vn -0.955675 0.293847 0.018443
vn -0.572764 0.099476 -0.813662
vn -0.900226 0.188365 0.392571
vn -0.831587 0.526535 0.176702
vn -0.557317 0.301446 -0.773646
vn -0.730956 0.481731 0.483362
s 1
g pCube1
usemtl initialShadingGroup
f 1/1/1 2/2/2 6/6/3 5/5/4
f 2/2/2 3/3/5 7/7/6 6/6/3
f 3/3/5 4/4/7 8/8/8 7/7/6
f 5/5/4 6/6/3 10/10/9 9/9/10
f 6/6/3 7/7/6 11/11/11 10/10/9
f 7/7/6 8/8/8 12/12/12 11/11/11
f 9/9/10 10/10/9 14/14/13 13/13/14
f 10/10/9 11/11/11 15/15/15 14/14/13
f 11/11/11 12/12/12 16/16/16 15/15/15
s 2
f 13/13/17 14/14/18 18/18/19 17/17/20
f 14/14/18 15/15/21 19/19/22 18/18/19
f 15/15/21 16/16/23 20/20/24 19/19/22
f 17/17/20 18/18/19 22/22/25 21/21/26
f 18/18/19 19/19/22 23/23/27 22/22/25
f 19/19/22 20/20/24 24/24/28 23/23/27
s 3
f 21/21/29 22/22/30 26/26/31 25/25/32
f 22/22/30 23/23/33 27/27/34 26/26/31
f 23/23/33 24/24/35 28/28/36 27/27/34
f 25/25/32 26/26/31 30/30/37 29/29/38
f 26/26/31 27/27/34 31/31/39 30/30/37
f 27/27/34 28/28/36 32/32/40 31/31/39
f 29/29/38 30/30/37 34/34/41 33/33/42
f 30/30/37 31/31/39 35/35/43 34/34/41
f 31/31/39 32/32/40 36/36/44 35/35/43
s 4
f 33/33/45 34/34/46 38/38/47 37/37/48
f 34/34/46 35/35/49 39/39/50 38/38/47
f 35/35/49 36/36/51 40/40/52 39/39/50
f 37/37/48 38/38/47 2/42/53 1/41/54
f 38/38/47 39/39/50 3/43/55 2/42/53
f 39/39/50 40/40/52 4/44/56 3/43/55
s 5
f 40/46/57 36/45/58 32/47/59 41/48/60
f 4/4/61 40/46/57 41/48/60 8/8/62
f 41/48/60 32/47/59 28/49/63 42/50/64
f 8/8/62 41/48/60 42/50/64 12/12/65
f 42/50/64 28/49/63 24/51/66 20/52/67
f 12/12/65 42/50/64 20/52/67 16/16/68
s 6
f 33/53/69 37/54/70 43/56/71 29/55/72
f 37/54/70 1/1/73 5/5/74 43/56/71
f 29/55/72 43/56/71 44/58/75 25/57/76
f 43/56/71 5/5/74 9/9/77 44/58/75
f 25/57/76 44/58/75 17/60/78 21/59/79
f 44/58/75 9/9/77 13/13/80 17/60/78
